<svg xmlns="http://www.w3.org/2000/svg" width="262.601" height="144.122" viewBox="0 0 262.601 144.122">
  <g id="Group_3" data-name="Group 3" transform="translate(-264.985 -40.134)">
    <path id="Path_47" data-name="Path 47" d="M6.655,0h249.29A6.655,6.655,0,0,1,262.6,6.655V137.467a6.655,6.655,0,0,1-6.655,6.655H6.655A6.655,6.655,0,0,1,0,137.467V6.655A6.655,6.655,0,0,1,6.655,0Z" transform="translate(264.985 40.134)" fill="#262626"/>
    <g id="Group_2" data-name="Group 2" transform="translate(283.709 71.206)">
      <path id="Path_1" data-name="Path 1" d="M294.268,110.085h-2.331q-2.039,0-4.565.195-1.585.129-2.2.128a5.8,5.8,0,0,1-3.528-1,3.115,3.115,0,0,1-1.359-2.623,2.46,2.46,0,0,1,.6-1.764,4.3,4.3,0,0,1,1.959-1.02,2.719,2.719,0,0,0,1.747-1.053,7.783,7.783,0,0,0,.712-2.832q.26-2.428.47-9.453t.21-13.953a10.1,10.1,0,0,0-.42-3.626,3.2,3.2,0,0,0-1.974-1.457,2.964,2.964,0,0,1-2.234-2.881,2.746,2.746,0,0,1,1.538-2.477,8.6,8.6,0,0,1,4.289-.891q.905,0,2.136.032,2.718.1,3.949.1,4.63,0,10.457-.291,1.231-.065,3.076-.065,7.414,0,11.719,1.682a18.245,18.245,0,0,1,9.647,8.482,25.578,25.578,0,0,1,2.881,12.5,26.159,26.159,0,0,1-1.068,7.332,22.55,22.55,0,0,1-2.881,6.361,19.816,19.816,0,0,1-10.359,7.64,26.053,26.053,0,0,1-8.288,1.295l-3.918-.13-3.366-.1Q297.246,110.083,294.268,110.085Zm6.8-35.093v25.057a3.957,3.957,0,0,0,.874,2.9,4.067,4.067,0,0,0,2.914.858q9.453,0,9.453-14.373,0-7.932-2.2-12.3-2.428-4.823-8.223-4.823a3.092,3.092,0,0,0-2.185.615A2.819,2.819,0,0,0,301.067,74.992Z" transform="translate(-279.928 -65.021)" fill="#fff"/>
      <path id="Path_2" data-name="Path 2" d="M343.279,75.3a17.873,17.873,0,0,1,10.392,3.074,16.466,16.466,0,0,1,5.147,5.731,15.9,15.9,0,0,1,2.008,7.7q0,7.025-6.443,11.946A22.587,22.587,0,0,1,340.3,108.45q-7.736,0-12.528-4.4a14.41,14.41,0,0,1-4.661-11.136,15.665,15.665,0,0,1,5.7-12.5A21.453,21.453,0,0,1,343.279,75.3Zm-2.589,7.477a2.8,2.8,0,0,0-2.282,1.053,4.292,4.292,0,0,0-.858,2.8,26.529,26.529,0,0,0,.728,5.293,39.922,39.922,0,0,0,1.732,5.94q1,2.655,3.269,2.654,2.881,0,2.881-3.658a30.344,30.344,0,0,0-.728-6.182,25.419,25.419,0,0,0-1.764-5.634A3.428,3.428,0,0,0,340.689,82.777Z" transform="translate(-269.34 -62.512)" fill="#fff"/>
      <path id="Path_3" data-name="Path 3" d="M373.074,77.126V94.672q0,5.633,3.723,5.634a3.6,3.6,0,0,0,1.846-.535A2.993,2.993,0,0,0,379.9,98.46q.713-1.555.712-6.928a48.089,48.089,0,0,0-.355-7.251,2.381,2.381,0,0,0-.454-1.181,4.577,4.577,0,0,0-1.23-.858,2.843,2.843,0,0,1-1.846-2.461q0-2.006,3.173-2.784a49.361,49.361,0,0,1,11.881-1.489q3.27,0,3.27,3.464c0,.238-.011.723-.032,1.458q-.065,1.553-.1,3.787V98.492q0,1.1,1.877,2.007a2.448,2.448,0,0,1,1.586,2.266q0,2.915-6.9,4.5a34.61,34.61,0,0,1-7.834.939,4.345,4.345,0,0,1-2.12-.357,1.721,1.721,0,0,1-.664-1.392q-.163-2.007-1.231-2.007a1.458,1.458,0,0,0-.712.178q-.324.178-1.974,1.311a12.22,12.22,0,0,1-7.024,2.234q-6.217,0-8.773-3.593-2.17-3.01-2.17-10.132,0-2.655.032-4.532V88.424a12.312,12.312,0,0,0-.5-4.1,3.932,3.932,0,0,0-1.828-2.055,6.062,6.062,0,0,1-1.6-1.036,1.563,1.563,0,0,1-.34-1.068q0-2.46,3.723-3.27a59.069,59.069,0,0,1,12.69-1.392Q373.075,75.507,373.074,77.126Z" transform="translate(-261.518 -62.461)" fill="#fff"/>
      <path id="Path_4" data-name="Path 4" d="M425.729,73.924a1.73,1.73,0,0,1,1.424.923A3.786,3.786,0,0,1,427.768,77a6.965,6.965,0,0,1-.826,3.011,8.309,8.309,0,0,1-1.991,2.687q-.745.647-.745,1.036,0,.1.065.777a8.746,8.746,0,0,1,.1,1.23,8.851,8.851,0,0,1-2.59,6.474,15.726,15.726,0,0,1-6.005,3.626,24.155,24.155,0,0,1-8.077,1.295,17,17,0,0,1-2.1-.128,12.141,12.141,0,0,0-1.295-.1,1.516,1.516,0,0,0-1.716,1.715,1.925,1.925,0,0,0,1.118,1.732,6.168,6.168,0,0,0,3.027.631,29.854,29.854,0,0,0,3.819-.355,62.762,62.762,0,0,1,7.835-.745,11.567,11.567,0,0,1,5.924,1.262,7.108,7.108,0,0,1,2.67,2.719,7.512,7.512,0,0,1,.988,3.755,10.222,10.222,0,0,1-2.4,6.346,16.679,16.679,0,0,1-8.385,5.373,33.582,33.582,0,0,1-10.035,1.359q-7.186,0-11.654-2.2a8.952,8.952,0,0,1-3.3-2.719,5.854,5.854,0,0,1-1.23-3.5,4.186,4.186,0,0,1,.7-2.331,3.914,3.914,0,0,1,1.765-1.522q.971-.389.97-.842,0-.355-.809-1.035-2.589-2.17-2.589-4.5a5.361,5.361,0,0,1,1.246-3.205,8.544,8.544,0,0,1,3.092-2.557q.776-.389.777-.777,0-.455-.972-1.361A9.492,9.492,0,0,1,391.8,86.97a7.955,7.955,0,0,1,1.181-4.143,10.5,10.5,0,0,1,3.286-3.367,20.711,20.711,0,0,1,11.557-3.4,27.872,27.872,0,0,1,5.634.647,25.127,25.127,0,0,0,4.046.582,11.264,11.264,0,0,0,7.026-2.784A2.349,2.349,0,0,1,425.729,73.924Zm-24.636,36.161q-.808,0-.809.939a3.505,3.505,0,0,0,2.073,3.091,10.764,10.764,0,0,0,5.373,1.182,11.952,11.952,0,0,0,4.97-.842,2.607,2.607,0,0,0,1.8-2.363,1.733,1.733,0,0,0-.68-1.376,2.538,2.538,0,0,0-1.684-.566,11.973,11.973,0,0,0-1.489.13,25.736,25.736,0,0,1-4.046.291,29.833,29.833,0,0,1-3.173-.162,14.111,14.111,0,0,1-1.845-.258A2.684,2.684,0,0,0,401.092,110.085Zm7.058-29.459a3.181,3.181,0,0,0-2.607,1.23,5.071,5.071,0,0,0-.987,3.27,12.442,12.442,0,0,0,1.068,5.6,3.189,3.189,0,0,0,2.816,2.1,3.245,3.245,0,0,0,2.72-1.311,5.639,5.639,0,0,0,1-3.512,11.38,11.38,0,0,0-1.051-5.39A3.393,3.393,0,0,0,408.15,80.625Z" transform="translate(-252.566 -62.852)" fill="#fff"/>
      <path id="Path_5" data-name="Path 5" d="M430.04,65.047a6.961,6.961,0,0,1,5.634,2.687,8.593,8.593,0,0,1,1.942,5.634,17.792,17.792,0,0,1-1.991,7.915,26.05,26.05,0,0,1-5.553,7.4,5.654,5.654,0,0,1-3.691,1.845,3.6,3.6,0,0,1-2.088-.631,1.77,1.77,0,0,1-.923-1.441,1.668,1.668,0,0,1,.649-1.1,20.457,20.457,0,0,0,2.9-3.546,5.6,5.6,0,0,0,.824-2.865,2.293,2.293,0,0,0-1.1-1.845,11.588,11.588,0,0,1-2.9-3.108,6.943,6.943,0,0,1-.858-3.528,7.3,7.3,0,0,1,2.023-5.293A6.948,6.948,0,0,1,430.04,65.047Z" transform="translate(-244.673 -65.047)" fill="#fff"/>
      <path id="Path_6" data-name="Path 6" d="M450.352,75.331a31.512,31.512,0,0,1,5.277.713,7.462,7.462,0,0,0,1.23.128,7.908,7.908,0,0,0,2.136-.582,3.582,3.582,0,0,1,1.263-.291q1.489,0,3.01,1.909a14.135,14.135,0,0,1,2.008,3.334,8.214,8.214,0,0,1,.777,3.141,2.841,2.841,0,0,1-.907,2.153,3.166,3.166,0,0,1-2.266.858,3.769,3.769,0,0,1-2.023-.55,21.448,21.448,0,0,1-2.865-2.428q-2.073-2.007-3.432-2.007a2.266,2.266,0,0,0-2.234,2.234q0,1.586,3.043,2.978a28.126,28.126,0,0,1,8.385,5.373,8.192,8.192,0,0,1,2.46,6.022,9.11,9.11,0,0,1-3.949,7.511,13.213,13.213,0,0,1-8.32,2.623,43.983,43.983,0,0,1-4.6-.422q-3.139-.355-3.528-.355a5.674,5.674,0,0,0-.972.1,11.239,11.239,0,0,1-1.359.128,3.477,3.477,0,0,1-2.4-.777,11.05,11.05,0,0,1-2.46-3.77,11.334,11.334,0,0,1-1.134-4.419q0-2.978,2.331-2.978a2.637,2.637,0,0,1,1.667.6,40.7,40.7,0,0,1,3.189,3.188,11.639,11.639,0,0,0,2.2,1.959,3.542,3.542,0,0,0,1.877.534,2.512,2.512,0,0,0,1.716-.566,1.9,1.9,0,0,0,.647-1.505q0-1.457-2.493-2.655a23.418,23.418,0,0,1-7.527-5.276,9.4,9.4,0,0,1-2.314-6.281,9.922,9.922,0,0,1,2.362-6.636A11.408,11.408,0,0,1,450.352,75.331Z" transform="translate(-241.061 -62.512)" fill="#fff"/>
      <path id="Path_7" data-name="Path 7" d="M288.134,115.7a7.069,7.069,0,0,1,3.043.69,2.828,2.828,0,0,0,.96.324,3.243,3.243,0,0,0,.626-.1,1.42,1.42,0,0,1,.313-.032,1.238,1.238,0,0,1,.982.518,4.711,4.711,0,0,1,1.036,3.108,2.142,2.142,0,0,1-.9,1.911,1.923,1.923,0,0,1-1.09.323,1.547,1.547,0,0,1-.9-.237,2.347,2.347,0,0,1-.67-.842,9.66,9.66,0,0,0-.755-1.225,3.479,3.479,0,0,0-.712-.675,3.764,3.764,0,0,0-2.191-.733,2.154,2.154,0,0,0-1.764.8,3.314,3.314,0,0,0-.654,2.153,6.414,6.414,0,0,0,.939,3.4,4.047,4.047,0,0,0,3.647,2.06,5.35,5.35,0,0,0,1.732-.291,3.48,3.48,0,0,0,1.332-.756,1.133,1.133,0,0,1,.67-.388.794.794,0,0,1,.647.35,1.349,1.349,0,0,1,.269.847,3.257,3.257,0,0,1-.378,1.4,3.613,3.613,0,0,1-.906,1.219,2.357,2.357,0,0,1-.939.324,4.713,4.713,0,0,0-1.09.4,7.589,7.589,0,0,1-3.324.766,8.674,8.674,0,0,1-3.593-.808A7.691,7.691,0,0,1,280,123.388a7.087,7.087,0,0,1,1.489-4.37,8.284,8.284,0,0,1,3.378-2.623A8.11,8.11,0,0,1,288.134,115.7Z" transform="translate(-279.998 -52.523)" fill="#fff"/>
      <path id="Path_8" data-name="Path 8" d="M298.849,119.131a5.272,5.272,0,0,1,3.184.949,2.8,2.8,0,0,1,.965,1.16,4.745,4.745,0,0,1,.276,1.8l-.021,1.608a6.141,6.141,0,0,0,.237,2.169.72.72,0,0,0,.227.3,1.416,1.416,0,0,0,.453.118.4.4,0,0,1,.345.454,1.831,1.831,0,0,1-.415,1.079,3.448,3.448,0,0,1-1.074.939,3.3,3.3,0,0,1-1.695.474,2.226,2.226,0,0,1-1.791-.776c-.151-.187-.291-.281-.42-.281a1.073,1.073,0,0,0-.573.269,4.049,4.049,0,0,1-2.45.787,3.945,3.945,0,0,1-2.287-.6,2.954,2.954,0,0,1-1.241-2.385,2.667,2.667,0,0,1,.907-1.986,5.918,5.918,0,0,1,4.229-1.371,1.546,1.546,0,0,0,.788-.123c.107-.084.162-.276.162-.577a4.213,4.213,0,0,0-.238-1.656.8.8,0,0,0-.777-.513.925.925,0,0,0-.576.193,3.649,3.649,0,0,0-.632.712,2.6,2.6,0,0,1-2.007,1.371,1.21,1.21,0,0,1-.863-.313,1.068,1.068,0,0,1-.334-.819,1.658,1.658,0,0,1,.415-1.036,3.673,3.673,0,0,1,1.128-.907A8.6,8.6,0,0,1,298.849,119.131Zm-.722,6.247a1.077,1.077,0,0,0-.826.389,1.331,1.331,0,0,0-.35.928,1.317,1.317,0,0,0,.248.836.789.789,0,0,0,.657.319q.864,0,.864-1.457a1.732,1.732,0,0,0-.125-.8A.526.526,0,0,0,298.127,125.378Z" transform="translate(-276.89 -51.676)" fill="#fff"/>
      <path id="Path_9" data-name="Path 9" d="M307.788,119.191c.38,0,.612.055.7.162a2.916,2.916,0,0,1,.221,1.036c.036.317.147.474.334.474.145,0,.281-.1.41-.313A2.59,2.59,0,0,1,311.7,119.2a2.161,2.161,0,0,1,1.609.636,2.457,2.457,0,0,1,.5.8,2.581,2.581,0,0,1,.193.944,2.55,2.55,0,0,1-.237,1.041,2.591,2.591,0,0,1-.615.879,2.363,2.363,0,0,1-1.695.659,1.973,1.973,0,0,1-.922-.195,4.656,4.656,0,0,1-.977-.787.631.631,0,0,0-.422-.227.392.392,0,0,0-.394.339,6.907,6.907,0,0,0-.091,1.431,13.59,13.59,0,0,0,.118,2.223.875.875,0,0,0,.211.448,1.6,1.6,0,0,0,.577.254q.971.29.97,1.014a1.077,1.077,0,0,1-.313.771,1.547,1.547,0,0,1-.831.438,16.065,16.065,0,0,1-3.043.216,9.593,9.593,0,0,1-2.9-.334,1.094,1.094,0,0,1-.885-1.048,1.235,1.235,0,0,1,.649-1,1.64,1.64,0,0,0,.432-.373,1.06,1.06,0,0,0,.161-.458,24.831,24.831,0,0,0,.173-3.637,1.62,1.62,0,0,0-.109-.7.775.775,0,0,0-.432-.34q-.765-.3-.766-.874a1.074,1.074,0,0,1,.529-.889,6.432,6.432,0,0,1,1.77-.74A10.542,10.542,0,0,1,307.788,119.191Z" transform="translate(-274.422 -51.662)" fill="#fff"/>
      <path id="Path_10" data-name="Path 10" d="M317.34,119.191c.38,0,.612.055.7.162a2.915,2.915,0,0,1,.221,1.036c.036.317.147.474.334.474.145,0,.281-.1.41-.313a2.589,2.589,0,0,1,2.255-1.348,2.156,2.156,0,0,1,1.608.636,2.415,2.415,0,0,1,.5.8,2.4,2.4,0,0,1-.042,1.986,2.608,2.608,0,0,1-.615.879,2.365,2.365,0,0,1-1.695.659,1.978,1.978,0,0,1-.923-.195,4.658,4.658,0,0,1-.977-.787.626.626,0,0,0-.42-.227.392.392,0,0,0-.394.339,6.915,6.915,0,0,0-.091,1.431,13.441,13.441,0,0,0,.118,2.223.865.865,0,0,0,.211.448,1.6,1.6,0,0,0,.576.254q.973.29.972,1.014a1.077,1.077,0,0,1-.313.771,1.547,1.547,0,0,1-.831.438,16.064,16.064,0,0,1-3.043.216,9.587,9.587,0,0,1-2.9-.334,1.094,1.094,0,0,1-.886-1.048,1.237,1.237,0,0,1,.647-1,1.629,1.629,0,0,0,.433-.373,1.059,1.059,0,0,0,.161-.458,24.82,24.82,0,0,0,.173-3.637,1.62,1.62,0,0,0-.109-.7.776.776,0,0,0-.432-.34q-.765-.3-.766-.874a1.074,1.074,0,0,1,.529-.889,6.4,6.4,0,0,1,1.77-.74A10.541,10.541,0,0,1,317.34,119.191Z" transform="translate(-272.061 -51.662)" fill="#fff"/>
      <path id="Path_11" data-name="Path 11" d="M332.273,124.436l-1.424,3.918a14.988,14.988,0,0,1-1.063,2.38,7,7,0,0,1-1.214,1.57,4.72,4.72,0,0,1-3.377,1.337,3.875,3.875,0,0,1-2.59-.841,2.071,2.071,0,0,1-.766-1.651,1.964,1.964,0,0,1,.534-1.4,1.736,1.736,0,0,1,1.311-.566,1.621,1.621,0,0,1,1.252.518,1.455,1.455,0,0,1,.3.422,6.889,6.889,0,0,1,.227.809.532.532,0,0,0,.54.474.688.688,0,0,0,.561-.291,1.144,1.144,0,0,0,.226-.723,4.768,4.768,0,0,0-.561-1.694l-2.6-5.536a5.016,5.016,0,0,0-.615-1.079,3.176,3.176,0,0,0-.907-.529.792.792,0,0,1-.372-.339.936.936,0,0,1-.157-.491q0-.96,1.911-1.306a16.688,16.688,0,0,1,2.9-.227,5.474,5.474,0,0,1,1.8.238,1.112,1.112,0,0,1,.884,1.068,1.2,1.2,0,0,1-.248.637,1.134,1.134,0,0,0-.237.615,1.422,1.422,0,0,0,.113.539q.114.281.48.95.41.756.723.756c.222,0,.453-.222.69-.665a2.691,2.691,0,0,0,.357-1.278,1.2,1.2,0,0,0-.269-.809,1.4,1.4,0,0,1-.41-.831q0-.55.733-.879a4.867,4.867,0,0,1,1.964-.329q2.288,0,2.287,1.1a.887.887,0,0,1-.232.641,2.2,2.2,0,0,1-.847.459,1.668,1.668,0,0,0-.821.647A12.837,12.837,0,0,0,332.273,124.436Z" transform="translate(-269.718 -51.662)" fill="#fff"/>
      <path id="Path_12" data-name="Path 12" d="M338.883,119.131a5.956,5.956,0,0,1,3.464,1.025,5.483,5.483,0,0,1,1.716,1.909,5.3,5.3,0,0,1,.668,2.568,4.876,4.876,0,0,1-2.146,3.982,7.534,7.534,0,0,1-4.695,1.564,5.928,5.928,0,0,1-4.176-1.467A4.8,4.8,0,0,1,332.161,125a5.221,5.221,0,0,1,1.9-4.164A7.15,7.15,0,0,1,338.883,119.131Zm-.863,2.492a.931.931,0,0,0-.761.352,1.43,1.43,0,0,0-.286.933,8.8,8.8,0,0,0,.242,1.765,13.328,13.328,0,0,0,.577,1.979,1.149,1.149,0,0,0,1.09.886q.96,0,.96-1.22a10.138,10.138,0,0,0-.243-2.062,8.483,8.483,0,0,0-.587-1.877A1.145,1.145,0,0,0,338.02,121.623Z" transform="translate(-267.102 -51.676)" fill="#fff"/>
      <path id="Path_13" data-name="Path 13" d="M348.816,119.74v5.848q0,1.878,1.241,1.877a1.2,1.2,0,0,0,.615-.177.994.994,0,0,0,.42-.438,6.868,6.868,0,0,0,.238-2.309,15.862,15.862,0,0,0-.12-2.417.781.781,0,0,0-.151-.394,1.493,1.493,0,0,0-.41-.286.95.95,0,0,1-.615-.821q0-.67,1.058-.928a16.473,16.473,0,0,1,3.961-.5q1.089,0,1.089,1.155c0,.079,0,.241-.01.485-.015.345-.025.766-.032,1.262v4.759q0,.367.626.669a.819.819,0,0,1,.529.756q0,.971-2.3,1.5a11.564,11.564,0,0,1-2.612.313,1.443,1.443,0,0,1-.707-.12.571.571,0,0,1-.221-.464q-.054-.668-.41-.669a.478.478,0,0,0-.237.06q-.108.058-.659.437a4.077,4.077,0,0,1-2.342.745,3.342,3.342,0,0,1-2.924-1.2,5.956,5.956,0,0,1-.723-3.379q0-.885.011-1.51v-.5a4.106,4.106,0,0,0-.167-1.364,1.318,1.318,0,0,0-.61-.686,2.013,2.013,0,0,1-.535-.345.524.524,0,0,1-.112-.355q0-.819,1.241-1.09a19.682,19.682,0,0,1,4.229-.464C348.6,119.2,348.816,119.38,348.816,119.74Z" transform="translate(-264.495 -51.659)" fill="#fff"/>
      <path id="Path_14" data-name="Path 14" d="M361.394,122.482v3.648a1.678,1.678,0,0,0,.318,1.058.987.987,0,0,0,.814.409,2.457,2.457,0,0,0,1.111-.388.626.626,0,0,1,.324-.1.6.6,0,0,1,.475.313,1.176,1.176,0,0,1,.216.68,1.716,1.716,0,0,1-.735,1.285,5.528,5.528,0,0,1-3.712,1.3,3.9,3.9,0,0,1-2.774-.977,3.355,3.355,0,0,1-1.046-2.573v-4.985a.505.505,0,0,0-.059-.308.5.5,0,0,0-.308-.059h-1.111c-.208,0-.342-.035-.4-.1a.845.845,0,0,1-.087-.48v-.474a.55.55,0,0,1,.248-.475l4.943-3.108a.957.957,0,0,1,.453-.1h.874a.427.427,0,0,1,.362.125.894.894,0,0,1,.092.49v1.457a.6.6,0,0,0,.1.422.672.672,0,0,0,.437.1h2a.666.666,0,0,1,.518.146,1.069,1.069,0,0,1,.118.62v.637a1.242,1.242,0,0,1-.151.717.651.651,0,0,1-.55.2h-1.953a.42.42,0,0,0-.518.518Z" transform="translate(-261.599 -52.19)" fill="#fff"/>
      <path id="Path_15" data-name="Path 15" d="M374.24,115.48a5.239,5.239,0,0,1,2.579.6q1.079.6,1.079,1.429a1.187,1.187,0,0,1-.373.853,1.147,1.147,0,0,1-.836.378.8.8,0,0,1-.341-.065q-.135-.065-.717-.464a1.849,1.849,0,0,0-1.058-.345,1.163,1.163,0,0,0-.912.409,1.5,1.5,0,0,0-.362,1.025,1.232,1.232,0,0,0,.647,1.187,4.472,4.472,0,0,0,.983.195q.657.075.657.9a1.407,1.407,0,0,1-.722,1.306,3.71,3.71,0,0,1-1.2.3c-.338.051-.506.378-.506.983a4.282,4.282,0,0,0,.68,2.211,4.523,4.523,0,0,0,1.619,1.6,3.663,3.663,0,0,0,1.866.529,3.625,3.625,0,0,0,2.3-.777,2.158,2.158,0,0,0,.9-1.77,1.17,1.17,0,0,0-.4-.891,1.39,1.39,0,0,0-.977-.373,1.834,1.834,0,0,0-1.533,1.1c-.187.317-.38.475-.582.475a.8.8,0,0,1-.669-.459,2.016,2.016,0,0,1-.281-1.074,3.417,3.417,0,0,1,.933-2.352,6.628,6.628,0,0,1,2.7-1.684,6.427,6.427,0,0,0,1.749-.831,1,1,0,0,0,.378-.733.533.533,0,0,0-.151-.378.471.471,0,0,0-.357-.162,1.512,1.512,0,0,0-.388.118.463.463,0,0,1-.151.022.441.441,0,0,1-.319-.136.448.448,0,0,1-.135-.329,1.192,1.192,0,0,1,.443-.873,2.879,2.879,0,0,1,1.046-.6,3.932,3.932,0,0,1,1.306-.227,3.609,3.609,0,0,1,2.094.616,2.4,2.4,0,0,1,.8.922,2.659,2.659,0,0,1,.292,1.215,3.076,3.076,0,0,1-.626,1.812,4.882,4.882,0,0,1-1.727,1.457q-.788.432-.787.745c0,.151.176.335.529.551a2.181,2.181,0,0,1,.771.824,2.319,2.319,0,0,1,.287,1.129,3.511,3.511,0,0,1-.777,2.072,7.292,7.292,0,0,1-3.507,2.45,12.631,12.631,0,0,1-4.4.722,11.753,11.753,0,0,1-5.514-1.2A6.022,6.022,0,0,1,368,127.392a4.617,4.617,0,0,1-.594-2.276,3.184,3.184,0,0,1,.853-2.234,3.663,3.663,0,0,1,1.068-.842c.267-.137.4-.269.4-.4a.624.624,0,0,0-.107-.281,4.031,4.031,0,0,1-.659-1.921,3.1,3.1,0,0,1,.459-1.581,4.057,4.057,0,0,1,1.235-1.311,6.277,6.277,0,0,1,1.695-.777A6.544,6.544,0,0,1,374.24,115.48Z" transform="translate(-258.388 -52.579)" fill="#fff"/>
      <path id="Path_16" data-name="Path 16" d="M395.634,115.7a8.7,8.7,0,0,1,2.665.4,3.061,3.061,0,0,0,.766.183,3.632,3.632,0,0,0,.907-.248,1.435,1.435,0,0,1,.464-.076,1.511,1.511,0,0,1,1.154.712,4.006,4.006,0,0,1,.886,2.5,2.294,2.294,0,0,1-.469,1.5,1.522,1.522,0,0,1-1.236.572,2.028,2.028,0,0,1-1.23-.454,9.146,9.146,0,0,1-.9-1.014,3.464,3.464,0,0,0-2.73-1.457,2.71,2.71,0,0,0-2.228,1.025,4.28,4.28,0,0,0-.826,2.763,7.27,7.27,0,0,0,1.317,4.391,3.892,3.892,0,0,0,1.186,1.053,2.758,2.758,0,0,0,1.371.394,1.231,1.231,0,0,0,.923-.373,1.315,1.315,0,0,0,.362-.955.839.839,0,0,0-.3-.733.527.527,0,0,0-.221-.1,6.192,6.192,0,0,0-.62-.016,1.063,1.063,0,0,1-.772-.3,1,1,0,0,1-.308-.75q0-.9,1.187-1.273a10.067,10.067,0,0,1,3.011-.41,10.653,10.653,0,0,1,3.064.378q1.177.367,1.176,1.327a.951.951,0,0,1-.269.675,1.121,1.121,0,0,1-.7.339.93.93,0,0,0-.491.167,1.4,1.4,0,0,0-.232.556,5.63,5.63,0,0,1-1.813,2.87,6.763,6.763,0,0,1-2.239,1.231,8.585,8.585,0,0,1-2.758.441,8.836,8.836,0,0,1-4.338-1.089,7.574,7.574,0,0,1-3.971-6.7,7.1,7.1,0,0,1,1.058-3.713,7.544,7.544,0,0,1,3.14-2.913A8.645,8.645,0,0,1,395.634,115.7Z" transform="translate(-253.441 -52.523)" fill="#fff"/>
      <path id="Path_17" data-name="Path 17" d="M406.482,119.191c.38,0,.612.055.7.162a2.915,2.915,0,0,1,.221,1.036c.036.317.147.474.334.474.145,0,.281-.1.41-.313A2.589,2.589,0,0,1,410.4,119.2a2.156,2.156,0,0,1,1.608.636,2.417,2.417,0,0,1,.5.8,2.4,2.4,0,0,1-.042,1.986,2.608,2.608,0,0,1-.615.879,2.365,2.365,0,0,1-1.695.659,1.978,1.978,0,0,1-.923-.195,4.656,4.656,0,0,1-.977-.787.626.626,0,0,0-.42-.227.392.392,0,0,0-.394.339,6.909,6.909,0,0,0-.091,1.431,13.448,13.448,0,0,0,.118,2.223.865.865,0,0,0,.211.448,1.6,1.6,0,0,0,.576.254q.973.29.972,1.014a1.077,1.077,0,0,1-.313.771,1.548,1.548,0,0,1-.831.438,16.065,16.065,0,0,1-3.043.216,9.587,9.587,0,0,1-2.9-.334,1.094,1.094,0,0,1-.885-1.048,1.236,1.236,0,0,1,.647-1,1.63,1.63,0,0,0,.433-.373,1.06,1.06,0,0,0,.161-.458,24.832,24.832,0,0,0,.173-3.637,1.62,1.62,0,0,0-.109-.7.775.775,0,0,0-.432-.34q-.765-.3-.766-.874a1.074,1.074,0,0,1,.529-.889,6.4,6.4,0,0,1,1.77-.74A10.542,10.542,0,0,1,406.482,119.191Z" transform="translate(-250.023 -51.662)" fill="#fff"/>
      <path id="Path_18" data-name="Path 18" d="M417.341,119.131a5.958,5.958,0,0,1,3.464,1.025,5.483,5.483,0,0,1,1.716,1.909,5.313,5.313,0,0,1,.669,2.568,4.874,4.874,0,0,1-2.148,3.982,7.53,7.53,0,0,1-4.693,1.564,5.933,5.933,0,0,1-4.177-1.467A4.807,4.807,0,0,1,410.617,125a5.222,5.222,0,0,1,1.9-4.164A7.15,7.15,0,0,1,417.341,119.131Zm-.863,2.492a.929.929,0,0,0-.761.352,1.43,1.43,0,0,0-.287.933,8.819,8.819,0,0,0,.243,1.765,13.325,13.325,0,0,0,.577,1.979,1.149,1.149,0,0,0,1.09.886q.96,0,.96-1.22a10.14,10.14,0,0,0-.243-2.062,8.549,8.549,0,0,0-.587-1.877A1.145,1.145,0,0,0,416.478,121.623Z" transform="translate(-247.707 -51.676)" fill="#fff"/>
      <path id="Path_19" data-name="Path 19" d="M427.48,119.139a6.049,6.049,0,0,1,3.387.96,2.679,2.679,0,0,1,1.393,2.277,1.947,1.947,0,0,1-.649,1.522,2.087,2.087,0,0,1-1.457.55,1.539,1.539,0,0,1-1.348-.647,5.169,5.169,0,0,1-.41-1.046,1.119,1.119,0,0,0-1.111-.907,1.225,1.225,0,0,0-1,.518,2,2,0,0,0-.405,1.273,3.289,3.289,0,0,0,.928,2.3,2.488,2.488,0,0,0,1.9.809,3.813,3.813,0,0,0,.907-.091,5.54,5.54,0,0,0,.96-.373.744.744,0,0,1,.334-.075.821.821,0,0,1,.647.344,1.246,1.246,0,0,1,.281.809,1.73,1.73,0,0,1-.4,1.02,3.721,3.721,0,0,1-1.046.933,6.188,6.188,0,0,1-3.313.863,5.746,5.746,0,0,1-3.788-1.295,5.161,5.161,0,0,1-2.008-4.176,5.084,5.084,0,0,1,1.867-4.036A6.408,6.408,0,0,1,427.48,119.139Z" transform="translate(-245.069 -51.674)" fill="#fff"/>
      <path id="Path_20" data-name="Path 20" d="M440.626,125.053h-5.071c-.223,0-.334.1-.334.291a1.732,1.732,0,0,0,.761,1.322,2.536,2.536,0,0,0,1.635.621,3.872,3.872,0,0,0,1.149-.2,3.748,3.748,0,0,0,1.041-.491,1.148,1.148,0,0,1,.582-.259.735.735,0,0,1,.55.345,1.142,1.142,0,0,1,.271.712,1.967,1.967,0,0,1-.972,1.5,6.434,6.434,0,0,1-3.96,1.283,5.622,5.622,0,0,1-3.8-1.316,5.37,5.37,0,0,1-1.23-1.565,5.461,5.461,0,0,1-.637-2.568,5.248,5.248,0,0,1,1.1-3.259,5.781,5.781,0,0,1,2.417-1.867,6.076,6.076,0,0,1,2.385-.464A5.355,5.355,0,0,1,440,120.305a4.648,4.648,0,0,1,1.165,1.381,3.619,3.619,0,0,1,.508,1.77,2.073,2.073,0,0,1-.292,1.15A.874.874,0,0,1,440.626,125.053Zm-4.791-2.018h1.09q.69,0,.691-.637a1.354,1.354,0,0,0-.336-.949,1.128,1.128,0,0,0-.874-.367,1.112,1.112,0,0,0-.949.474,1.508,1.508,0,0,0-.323.9.558.558,0,0,0,.156.453A.872.872,0,0,0,435.835,123.035Z" transform="translate(-242.763 -51.674)" fill="#fff"/>
      <path id="Path_21" data-name="Path 21" d="M445.122,119.191c.38,0,.612.055.7.162a2.917,2.917,0,0,1,.221,1.036c.036.317.147.474.334.474.145,0,.281-.1.41-.313a2.589,2.589,0,0,1,2.255-1.348,2.156,2.156,0,0,1,1.608.636,2.417,2.417,0,0,1,.5.8,2.4,2.4,0,0,1-.042,1.986,2.591,2.591,0,0,1-.615.879,2.365,2.365,0,0,1-1.7.659,1.973,1.973,0,0,1-.922-.195,4.688,4.688,0,0,1-.978-.787.626.626,0,0,0-.42-.227.392.392,0,0,0-.394.339,6.9,6.9,0,0,0-.091,1.431,13.439,13.439,0,0,0,.119,2.223.874.874,0,0,0,.211.448,1.6,1.6,0,0,0,.576.254q.973.29.972,1.014a1.077,1.077,0,0,1-.313.771,1.547,1.547,0,0,1-.831.438,16.065,16.065,0,0,1-3.043.216,9.587,9.587,0,0,1-2.9-.334,1.094,1.094,0,0,1-.886-1.048,1.236,1.236,0,0,1,.647-1,1.628,1.628,0,0,0,.433-.373,1.059,1.059,0,0,0,.161-.458,24.82,24.82,0,0,0,.173-3.637,1.619,1.619,0,0,0-.109-.7.775.775,0,0,0-.432-.34q-.765-.3-.766-.874a1.074,1.074,0,0,1,.529-.889,6.4,6.4,0,0,1,1.77-.74A10.541,10.541,0,0,1,445.122,119.191Z" transform="translate(-240.47 -51.662)" fill="#fff"/>
      <path id="Path_22" data-name="Path 22" d="M460.055,124.436l-1.424,3.918a15,15,0,0,1-1.063,2.38,7,7,0,0,1-1.214,1.57,4.72,4.72,0,0,1-3.377,1.337,3.874,3.874,0,0,1-2.59-.841,2.071,2.071,0,0,1-.766-1.651,1.964,1.964,0,0,1,.534-1.4,1.736,1.736,0,0,1,1.311-.566,1.621,1.621,0,0,1,1.252.518,1.454,1.454,0,0,1,.3.422,6.9,6.9,0,0,1,.227.809.532.532,0,0,0,.54.474.688.688,0,0,0,.561-.291,1.143,1.143,0,0,0,.226-.723,4.767,4.767,0,0,0-.561-1.694l-2.6-5.536a5.014,5.014,0,0,0-.615-1.079,3.174,3.174,0,0,0-.907-.529.792.792,0,0,1-.372-.339.936.936,0,0,1-.157-.491q0-.96,1.911-1.306a16.688,16.688,0,0,1,2.9-.227,5.474,5.474,0,0,1,1.8.238,1.112,1.112,0,0,1,.884,1.068,1.194,1.194,0,0,1-.248.637,1.134,1.134,0,0,0-.237.615,1.423,1.423,0,0,0,.114.539q.114.281.48.95.41.756.723.756c.222,0,.453-.222.69-.665a2.69,2.69,0,0,0,.357-1.278,1.2,1.2,0,0,0-.269-.809,1.4,1.4,0,0,1-.41-.831q0-.55.733-.879a4.867,4.867,0,0,1,1.964-.329q2.288,0,2.287,1.1a.888.888,0,0,1-.232.641,2.2,2.2,0,0,1-.847.459,1.668,1.668,0,0,0-.821.647A12.844,12.844,0,0,0,460.055,124.436Z" transform="translate(-238.128 -51.662)" fill="#fff"/>
    </g>
  </g>
</svg>
