<svg xmlns="http://www.w3.org/2000/svg" width="107.474" height="158.382" viewBox="0 0 107.474 158.382">
  <g id="Group_5" data-name="Group 5" transform="translate(-65.628 -23.649)">
    <path id="Path_23" data-name="Path 23" d="M163.014,87.954c-1.784,0-3.57.049-5.352-.02a11.616,11.616,0,0,1-2.8-.445,71.945,71.945,0,0,0-11.274-2.677c-2.784-.352-5.58-.709-8.38-.822-5.679-.23-11.369-.5-17.045-.365a138.257,138.257,0,0,0-14.473,1.228c-6.479.839-12.924,1.95-19.379,2.973-1.461.232-2.9.627-4.358.869-1.537.255-3.09.409-4.634.622-1.648.227-3.293.481-4.942.708A3.72,3.72,0,0,1,66.1,87.206a11.839,11.839,0,0,1-.237-5.653,7.918,7.918,0,0,1,3.351-4.912,1.357,1.357,0,0,0,.67-1.309,33.187,33.187,0,0,1-.274-4.6c.174-3.25.551-6.49.773-9.739.093-1.344-.036-2.7,0-4.051a39.171,39.171,0,0,1,.294-4.888,45.224,45.224,0,0,1,1.389-6.273,15.807,15.807,0,0,1,4.454-6.949,38.917,38.917,0,0,1,3.806-3.249,25.082,25.082,0,0,1,7.967-3.519c5-1.4,10.031-2.676,15.065-3.946,1.923-.485,3.917-.7,5.825-1.236a15.564,15.564,0,0,1,4.37-.673,2.617,2.617,0,0,0,1.418-.627,8.276,8.276,0,0,1,8.15-1.424,21.47,21.47,0,0,1,2,1.189,4.763,4.763,0,0,0,1.849.581,77.726,77.726,0,0,1,10.581,1.1c4.763.783,9.547,1.52,14.062,3.274a56.38,56.38,0,0,1,7.548,3.688,13.087,13.087,0,0,1,5.731,7.1c1.068,2.911,2.074,5.853,2.923,8.834A34.038,34.038,0,0,1,168.93,58.1c.115,3.372.2,6.745.3,10.117.059,1.965.117,3.931.187,5.9q.044,1.23.142,2.457a.932.932,0,0,0,.225.469c.754.92,1.56,1.8,2.271,2.752a5.288,5.288,0,0,1-1,7.327,3.545,3.545,0,0,1-2.53.851C166.691,87.909,164.852,87.954,163.014,87.954ZM119.89,43.548q-10.623,0-21.247,0a4.215,4.215,0,0,0-4.337,4.317q0,9.625,0,19.25a4.3,4.3,0,0,0,4.558,4.527q3.795,0,7.588,0,17.213,0,34.426,0a4.282,4.282,0,0,0,4.5-4.275q.02-9.784,0-19.569a4.182,4.182,0,0,0-4.322-4.249Q130.473,43.547,119.89,43.548Z" transform="translate(0 0)" fill="#262626"/>
    <path id="Path_24" data-name="Path 24" d="M96.544,176.164c.43-1.223.792-2.219,1.131-3.222a10.267,10.267,0,0,1,5.466-5.925,19.559,19.559,0,0,1,10.667-1.966,16.334,16.334,0,0,1,6.4,2.265,1.457,1.457,0,0,0,1.55.049,19,19,0,0,1,5.8-2.12,22.071,22.071,0,0,1,6.221-.082,17.753,17.753,0,0,1,6.966,2.536,8.889,8.889,0,0,1,4.385,5.888,6.254,6.254,0,0,0,.316,1.143c.1.236.332.569.519.579a1.078,1.078,0,0,0,.792-.379c.932-1.223,1.74-2.547,2.734-3.713,2.1-2.462,4.315-4.825,6.438-7.269,3.551-4.089,6.364-8.6,7.153-14.064.446-3.086.568-6.219.82-9.333q.3-3.72.563-7.442c.128-1.8.2-3.6.36-5.4a20.355,20.355,0,0,1,.5-2.723c.057-.251.3-.636.483-.646.454-.025.969-.248,1.35.341a12.79,12.79,0,0,1,1.656,4.779c.409,2.238.768,4.5.953,6.763.242,2.958.356,5.93.413,8.9a49.191,49.191,0,0,1-3.341,19.633c-2.011,4.966-4.116,9.894-6.09,14.875-1.1,2.78-1.963,5.655-3.036,8.447a47.709,47.709,0,0,1-12.3,17.6,41.846,41.846,0,0,1-11.622,7.825,24.634,24.634,0,0,1-9.5,2.032c-1.59.047-3.182.152-4.771.121a26.611,26.611,0,0,1-10.552-1.973,43.591,43.591,0,0,1-12.7-8.631,47.925,47.925,0,0,1-9.32-12.3c-1.092-2.108-1.829-4.4-2.729-6.608-2.13-5.228-4.247-10.462-6.4-15.682-2.05-4.982-4.042-9.986-4.913-15.338-.34-2.085-.554-4.2-.7-6.306-.149-2.144-.244-4.3-.178-6.446s.324-4.268.559-6.394.494-4.255.847-6.366a32.2,32.2,0,0,1,.965-3.768,1.927,1.927,0,0,1,.662-1.051,2.319,2.319,0,0,1,1.5-.41c.3.061.645.7.7,1.12.176,1.389.22,2.794.332,4.192.2,2.453.416,4.905.6,7.359.134,1.743.184,3.494.358,5.233.29,2.893.539,5.8,1.005,8.665a21.676,21.676,0,0,0,5.341,11.258c3.313,3.685,6.527,7.458,9.749,11.223C95.321,174.216,95.831,175.125,96.544,176.164Zm16.926,18a5.4,5.4,0,0,0,.959-.357,3.9,3.9,0,0,0,1.553-4.343c-.47-1.555.2-2.594,1.254-3.554,1.933-1.767,4.194-1.782,6.5-1.076a3.788,3.788,0,0,1,2.8,3.162,35.388,35.388,0,0,1,.238,3.57,2.53,2.53,0,0,0,1.9,2.366,4.313,4.313,0,0,0,3.127-.628,27.855,27.855,0,0,0,6.723-4.772c1.631-1.585,2.991-3.258,3.049-5.631.05-2.069-.215-3.45-2.772-3.69-2.321-.218-4.661-.272-6.994-.33-2.74-.068-5.48-.089-8.221-.085-5.574.009-11.147.029-16.719.092a21.594,21.594,0,0,0-3.307.373,3.788,3.788,0,0,0-2.79,3.528,8.339,8.339,0,0,0,1.569,3.947,24.282,24.282,0,0,0,6.329,5.61A10.9,10.9,0,0,0,113.47,194.165Z" transform="translate(-2.133 -33.638)" fill="#262626"/>
    <g id="Group_4" data-name="Group 4" transform="translate(97.744 49.454)">
      <path id="Path_25" data-name="Path 25" d="M116.679,71.141h-.451q-.394,0-.883.037c-.2.017-.347.025-.426.025a1.117,1.117,0,0,1-.682-.194.6.6,0,0,1-.263-.507.475.475,0,0,1,.116-.341.828.828,0,0,1,.379-.2.526.526,0,0,0,.338-.2,1.505,1.505,0,0,0,.138-.548q.05-.469.091-1.829t.041-2.7a1.95,1.95,0,0,0-.081-.7.62.62,0,0,0-.382-.282.574.574,0,0,1-.432-.557.532.532,0,0,1,.3-.479,1.67,1.67,0,0,1,.83-.172q.175,0,.413.006.526.019.764.019.9,0,2.023-.056.238-.013.595-.013a6.4,6.4,0,0,1,2.268.326,3.53,3.53,0,0,1,1.866,1.641,4.949,4.949,0,0,1,.557,2.417,5.054,5.054,0,0,1-.206,1.418,4.354,4.354,0,0,1-.558,1.231,3.834,3.834,0,0,1-2,1.478,5.032,5.032,0,0,1-1.6.25l-.758-.025-.652-.019Q117.255,71.14,116.679,71.141Zm1.315-6.789V69.2a.765.765,0,0,0,.169.56.785.785,0,0,0,.564.166q1.828,0,1.829-2.781a5.4,5.4,0,0,0-.426-2.38,1.64,1.64,0,0,0-1.59-.933.6.6,0,0,0-.423.119A.544.544,0,0,0,117.993,64.351Z" transform="translate(-113.904 -62.423)" fill="#262626"/>
      <path id="Path_26" data-name="Path 26" d="M133.4,66.126a3.458,3.458,0,0,1,2.011.6,3.177,3.177,0,0,1,1,1.108,3.077,3.077,0,0,1,.389,1.49,2.83,2.83,0,0,1-1.246,2.311,4.373,4.373,0,0,1-2.724.908,3.442,3.442,0,0,1-2.424-.852,2.786,2.786,0,0,1-.9-2.154,3.031,3.031,0,0,1,1.1-2.417A4.15,4.15,0,0,1,133.4,66.126Zm-.5,1.447a.541.541,0,0,0-.441.2.83.83,0,0,0-.166.541,5.129,5.129,0,0,0,.141,1.024,7.8,7.8,0,0,0,.335,1.15A.666.666,0,0,0,133.4,71q.557,0,.557-.708a5.885,5.885,0,0,0-.14-1.2,4.919,4.919,0,0,0-.342-1.09A.662.662,0,0,0,132.895,67.573Z" transform="translate(-119.092 -63.652)" fill="#262626"/>
      <path id="Path_27" data-name="Path 27" d="M144.506,66.515v3.394q0,1.089.72,1.09a.7.7,0,0,0,.357-.1.582.582,0,0,0,.244-.254,3.993,3.993,0,0,0,.138-1.34,9.277,9.277,0,0,0-.069-1.4.464.464,0,0,0-.087-.228.885.885,0,0,0-.238-.166.55.55,0,0,1-.357-.476q0-.388.614-.539a9.528,9.528,0,0,1,2.3-.288q.633,0,.632.67,0,.069-.006.282-.013.3-.019.733v2.762c0,.142.121.272.363.388a.473.473,0,0,1,.307.439q0,.563-1.333.87a6.7,6.7,0,0,1-1.516.182.844.844,0,0,1-.41-.069.334.334,0,0,1-.128-.27q-.031-.388-.238-.388a.275.275,0,0,0-.138.035q-.063.034-.382.254a2.368,2.368,0,0,1-1.359.432,1.941,1.941,0,0,1-1.7-.7,3.46,3.46,0,0,1-.419-1.961q0-.513.006-.877V68.7a2.383,2.383,0,0,0-.1-.792.764.764,0,0,0-.354-.4,1.175,1.175,0,0,1-.31-.2.305.305,0,0,1-.065-.206q0-.476.72-.632a11.42,11.42,0,0,1,2.455-.27Q144.506,66.2,144.506,66.515Z" transform="translate(-122.925 -63.677)" fill="#262626"/>
      <path id="Path_28" data-name="Path 28" d="M160.811,65.627a.338.338,0,0,1,.276.178.735.735,0,0,1,.118.417,1.349,1.349,0,0,1-.16.583,1.612,1.612,0,0,1-.385.52c-.1.083-.144.15-.144.2,0,.012,0,.063.012.15a1.689,1.689,0,0,1,.019.238,1.712,1.712,0,0,1-.5,1.252,3.042,3.042,0,0,1-1.162.7,4.67,4.67,0,0,1-1.562.25,3.3,3.3,0,0,1-.407-.025,2.342,2.342,0,0,0-.25-.019.294.294,0,0,0-.332.332.372.372,0,0,0,.216.335,1.2,1.2,0,0,0,.586.122,5.78,5.78,0,0,0,.739-.069,12.152,12.152,0,0,1,1.515-.144,2.237,2.237,0,0,1,1.146.244,1.372,1.372,0,0,1,.517.526,1.454,1.454,0,0,1,.191.726,1.979,1.979,0,0,1-.463,1.228,3.225,3.225,0,0,1-1.622,1.039,6.485,6.485,0,0,1-1.941.263,5.127,5.127,0,0,1-2.255-.425,1.736,1.736,0,0,1-.638-.526,1.134,1.134,0,0,1-.238-.676.81.81,0,0,1,.135-.451.757.757,0,0,1,.341-.294c.126-.05.188-.1.188-.162s-.053-.113-.157-.2a1.167,1.167,0,0,1-.5-.871,1.038,1.038,0,0,1,.241-.62,1.653,1.653,0,0,1,.6-.495c.1-.051.15-.1.15-.15s-.063-.146-.188-.263a1.837,1.837,0,0,1-.645-1.391,1.544,1.544,0,0,1,.228-.8,2.042,2.042,0,0,1,.636-.651,4,4,0,0,1,2.236-.658,5.4,5.4,0,0,1,1.089.125,4.894,4.894,0,0,0,.783.113,2.181,2.181,0,0,0,1.359-.539A.453.453,0,0,1,160.811,65.627Zm-4.766,7c-.1,0-.156.061-.156.182a.677.677,0,0,0,.4.6,2.082,2.082,0,0,0,1.039.229,2.311,2.311,0,0,0,.961-.163.5.5,0,0,0,.348-.457.334.334,0,0,0-.131-.266.5.5,0,0,0-.326-.109,2.34,2.34,0,0,0-.288.025,4.911,4.911,0,0,1-.783.057,5.868,5.868,0,0,1-.614-.031,2.78,2.78,0,0,1-.357-.05A.508.508,0,0,0,156.045,72.623Zm1.365-5.7a.616.616,0,0,0-.5.238.981.981,0,0,0-.191.632,2.41,2.41,0,0,0,.207,1.084.617.617,0,0,0,.545.407.626.626,0,0,0,.526-.254,1.088,1.088,0,0,0,.194-.68,2.2,2.2,0,0,0-.2-1.043A.655.655,0,0,0,157.41,66.924Z" transform="translate(-127.311 -63.485)" fill="#262626"/>
      <path id="Path_29" data-name="Path 29" d="M167.039,62.41a1.346,1.346,0,0,1,1.09.52,1.663,1.663,0,0,1,.375,1.09,3.448,3.448,0,0,1-.385,1.531,5.049,5.049,0,0,1-1.074,1.431,1.094,1.094,0,0,1-.714.357.7.7,0,0,1-.4-.122.343.343,0,0,1-.178-.279.323.323,0,0,1,.125-.212,3.929,3.929,0,0,0,.561-.686,1.082,1.082,0,0,0,.16-.554.442.442,0,0,0-.213-.357,2.263,2.263,0,0,1-.561-.6,1.348,1.348,0,0,1-.166-.683,1.412,1.412,0,0,1,.391-1.024A1.345,1.345,0,0,1,167.039,62.41Z" transform="translate(-131.179 -62.41)" fill="#262626"/>
      <path id="Path_30" data-name="Path 30" d="M173.438,66.132a6.091,6.091,0,0,1,1.021.138,1.455,1.455,0,0,0,.238.025,1.564,1.564,0,0,0,.413-.113.685.685,0,0,1,.244-.057.793.793,0,0,1,.583.369,2.739,2.739,0,0,1,.389.645,1.59,1.59,0,0,1,.15.607.549.549,0,0,1-.175.417.614.614,0,0,1-.439.166.729.729,0,0,1-.391-.107,4.207,4.207,0,0,1-.554-.469,1.1,1.1,0,0,0-.664-.389.439.439,0,0,0-.432.433q0,.307.589.576a5.43,5.43,0,0,1,1.622,1.04,1.581,1.581,0,0,1,.476,1.164,1.764,1.764,0,0,1-.764,1.453,2.558,2.558,0,0,1-1.61.507,8.443,8.443,0,0,1-.889-.082q-.607-.069-.682-.069a1.075,1.075,0,0,0-.188.019,2.212,2.212,0,0,1-.263.025.673.673,0,0,1-.464-.15,2.132,2.132,0,0,1-.475-.73,2.186,2.186,0,0,1-.22-.855q0-.576.451-.576a.51.51,0,0,1,.322.116,8.059,8.059,0,0,1,.617.616,2.251,2.251,0,0,0,.425.379.685.685,0,0,0,.364.1.487.487,0,0,0,.332-.11.369.369,0,0,0,.125-.291q0-.283-.483-.514a4.529,4.529,0,0,1-1.456-1.021,1.82,1.82,0,0,1-.447-1.215,1.921,1.921,0,0,1,.457-1.284A2.208,2.208,0,0,1,173.438,66.132Z" transform="translate(-132.949 -63.652)" fill="#262626"/>
      <path id="Path_31" data-name="Path 31" d="M115.443,80.77a1.364,1.364,0,0,1,.589.133.543.543,0,0,0,.186.063.615.615,0,0,0,.121-.019.278.278,0,0,1,.061-.006.239.239,0,0,1,.19.1.912.912,0,0,1,.2.6.414.414,0,0,1-.173.369.371.371,0,0,1-.211.063.3.3,0,0,1-.173-.046.447.447,0,0,1-.129-.162,1.811,1.811,0,0,0-.146-.237.646.646,0,0,0-.138-.13.728.728,0,0,0-.423-.142.417.417,0,0,0-.342.155.641.641,0,0,0-.126.417,1.242,1.242,0,0,0,.182.658.783.783,0,0,0,.706.4,1.043,1.043,0,0,0,.335-.056.678.678,0,0,0,.258-.146.223.223,0,0,1,.13-.075.154.154,0,0,1,.125.068.262.262,0,0,1,.052.164.629.629,0,0,1-.073.272.7.7,0,0,1-.176.236.464.464,0,0,1-.182.063.88.88,0,0,0-.21.077,1.476,1.476,0,0,1-.643.148,1.673,1.673,0,0,1-.7-.156,1.487,1.487,0,0,1-.867-1.322,1.375,1.375,0,0,1,.288-.845,1.606,1.606,0,0,1,.654-.507A1.566,1.566,0,0,1,115.443,80.77Z" transform="translate(-113.869 -68.547)" fill="#262626"/>
      <path id="Path_32" data-name="Path 32" d="M119.64,82.011a1.02,1.02,0,0,1,.616.184.545.545,0,0,1,.186.224.924.924,0,0,1,.053.348l0,.312a1.187,1.187,0,0,0,.046.419.145.145,0,0,0,.044.059.285.285,0,0,0,.087.023.077.077,0,0,1,.067.088.355.355,0,0,1-.081.208.657.657,0,0,1-.208.182.639.639,0,0,1-.328.092.43.43,0,0,1-.347-.15c-.029-.036-.056-.054-.081-.054a.207.207,0,0,0-.111.052.783.783,0,0,1-.474.152.763.763,0,0,1-.443-.117.573.573,0,0,1-.24-.461.514.514,0,0,1,.175-.384,1.143,1.143,0,0,1,.818-.266.3.3,0,0,0,.152-.024c.021-.016.031-.053.031-.111a.82.82,0,0,0-.046-.321.156.156,0,0,0-.15-.1.177.177,0,0,0-.111.038.656.656,0,0,0-.122.138.5.5,0,0,1-.388.265.233.233,0,0,1-.167-.061.207.207,0,0,1-.065-.158.317.317,0,0,1,.081-.2.706.706,0,0,1,.218-.176A1.669,1.669,0,0,1,119.64,82.011Zm-.14,1.209a.205.205,0,0,0-.159.075.258.258,0,0,0-.068.179.254.254,0,0,0,.048.162.153.153,0,0,0,.127.062q.167,0,.167-.282a.333.333,0,0,0-.024-.154A.1.1,0,0,0,119.5,83.22Z" transform="translate(-115.392 -68.962)" fill="#262626"/>
      <path id="Path_33" data-name="Path 33" d="M123.057,82.033c.074,0,.118.011.134.031a.553.553,0,0,1,.043.2c.007.061.029.092.065.092s.054-.02.079-.061a.5.5,0,0,1,.436-.261.418.418,0,0,1,.311.123.473.473,0,0,1,.1.156.5.5,0,0,1,.037.182.537.537,0,0,1-.165.371.455.455,0,0,1-.328.128.379.379,0,0,1-.178-.038.886.886,0,0,1-.189-.152.124.124,0,0,0-.081-.043.075.075,0,0,0-.077.065,1.385,1.385,0,0,0-.017.277,2.632,2.632,0,0,0,.023.43.175.175,0,0,0,.041.087.326.326,0,0,0,.112.049q.188.056.188.2a.21.21,0,0,1-.061.15.3.3,0,0,1-.16.085,3.154,3.154,0,0,1-.589.041,1.858,1.858,0,0,1-.562-.065c-.114-.039-.171-.107-.171-.2a.24.24,0,0,1,.125-.194.311.311,0,0,0,.084-.072.209.209,0,0,0,.031-.089,4.888,4.888,0,0,0,.033-.7.326.326,0,0,0-.021-.134.151.151,0,0,0-.084-.066c-.1-.039-.148-.1-.148-.169a.209.209,0,0,1,.1-.172,1.254,1.254,0,0,1,.342-.142A2.013,2.013,0,0,1,123.057,82.033Z" transform="translate(-116.602 -68.969)" fill="#262626"/>
      <path id="Path_34" data-name="Path 34" d="M126.519,82.033c.073,0,.118.011.134.031a.568.568,0,0,1,.043.2c.007.061.029.092.065.092s.055-.02.08-.061a.5.5,0,0,1,.436-.261.418.418,0,0,1,.311.123.461.461,0,0,1,.1.156.462.462,0,0,1-.008.384.5.5,0,0,1-.119.17.456.456,0,0,1-.328.128.379.379,0,0,1-.178-.038.886.886,0,0,1-.189-.152.124.124,0,0,0-.081-.043.075.075,0,0,0-.077.065,1.337,1.337,0,0,0-.017.277,2.633,2.633,0,0,0,.023.43.175.175,0,0,0,.041.087.32.32,0,0,0,.112.049q.188.056.188.2a.21.21,0,0,1-.061.15.3.3,0,0,1-.16.085,3.159,3.159,0,0,1-.589.041,1.856,1.856,0,0,1-.562-.065c-.114-.039-.171-.107-.171-.2a.24.24,0,0,1,.125-.194.306.306,0,0,0,.083-.072.2.2,0,0,0,.031-.089,4.757,4.757,0,0,0,.034-.7.313.313,0,0,0-.021-.134.149.149,0,0,0-.083-.066c-.1-.039-.148-.1-.148-.169a.208.208,0,0,1,.1-.172,1.245,1.245,0,0,1,.342-.142A2.013,2.013,0,0,1,126.519,82.033Z" transform="translate(-117.759 -68.969)" fill="#262626"/>
      <path id="Path_35" data-name="Path 35" d="M131.008,83.048l-.276.758a2.864,2.864,0,0,1-.206.461,1.323,1.323,0,0,1-.235.3.912.912,0,0,1-.653.259.751.751,0,0,1-.5-.163.4.4,0,0,1-.148-.319.379.379,0,0,1,.1-.271.335.335,0,0,1,.254-.109.314.314,0,0,1,.242.1.267.267,0,0,1,.058.082,1.256,1.256,0,0,1,.044.156.1.1,0,0,0,.1.092.132.132,0,0,0,.109-.057.219.219,0,0,0,.044-.14.919.919,0,0,0-.109-.328l-.5-1.071a.972.972,0,0,0-.119-.208.618.618,0,0,0-.176-.1.154.154,0,0,1-.072-.066.184.184,0,0,1-.031-.1q0-.186.37-.252a3.224,3.224,0,0,1,.562-.044,1.062,1.062,0,0,1,.349.046.216.216,0,0,1,.171.207.232.232,0,0,1-.048.123.218.218,0,0,0-.046.119.275.275,0,0,0,.022.1c.015.036.045.1.093.184s.1.146.14.146.088-.043.134-.128a.525.525,0,0,0,.069-.248.232.232,0,0,0-.052-.156.274.274,0,0,1-.079-.16c0-.071.047-.128.142-.17a.938.938,0,0,1,.38-.064q.442,0,.443.213a.172.172,0,0,1-.045.124.432.432,0,0,1-.164.089.321.321,0,0,0-.158.125A2.45,2.45,0,0,0,131.008,83.048Z" transform="translate(-118.906 -68.969)" fill="#262626"/>
      <path id="Path_36" data-name="Path 36" d="M134.075,82.011a1.154,1.154,0,0,1,.67.2,1.058,1.058,0,0,1,.332.369,1.022,1.022,0,0,1,.129.5.944.944,0,0,1-.415.771,1.455,1.455,0,0,1-.908.3,1.147,1.147,0,0,1-.808-.284.93.93,0,0,1-.3-.718,1.01,1.01,0,0,1,.367-.806A1.382,1.382,0,0,1,134.075,82.011Zm-.167.483a.18.18,0,0,0-.147.068.277.277,0,0,0-.055.18,1.7,1.7,0,0,0,.047.341,2.548,2.548,0,0,0,.112.383.223.223,0,0,0,.211.171q.186,0,.186-.236a1.959,1.959,0,0,0-.047-.4,1.673,1.673,0,0,0-.113-.364A.221.221,0,0,0,133.908,82.494Z" transform="translate(-120.188 -68.962)" fill="#262626"/>
      <path id="Path_37" data-name="Path 37" d="M137.779,82.141v1.132q0,.362.24.363a.235.235,0,0,0,.119-.034.2.2,0,0,0,.081-.085,1.335,1.335,0,0,0,.046-.447,3.111,3.111,0,0,0-.023-.467.155.155,0,0,0-.029-.076.3.3,0,0,0-.079-.055.183.183,0,0,1-.119-.159c0-.086.068-.146.2-.179a3.159,3.159,0,0,1,.766-.1q.211,0,.211.224,0,.023,0,.094c0,.067-.005.148-.007.244v.921c0,.047.041.091.121.129a.158.158,0,0,1,.1.146q0,.188-.445.29a2.222,2.222,0,0,1-.505.061.28.28,0,0,1-.136-.023.112.112,0,0,1-.043-.09c-.007-.087-.033-.129-.079-.129a.09.09,0,0,0-.046.011c-.014.007-.057.036-.127.085a.789.789,0,0,1-.453.144.646.646,0,0,1-.565-.232,1.151,1.151,0,0,1-.14-.653c0-.115,0-.212,0-.292v-.1a.8.8,0,0,0-.033-.264.25.25,0,0,0-.118-.132.389.389,0,0,1-.1-.067.1.1,0,0,1-.022-.069q0-.159.24-.211a3.81,3.81,0,0,1,.819-.09C137.737,82.036,137.779,82.071,137.779,82.141Z" transform="translate(-121.466 -68.97)" fill="#262626"/>
      <path id="Path_38" data-name="Path 38" d="M142.191,82.309v.706a.322.322,0,0,0,.062.2.189.189,0,0,0,.157.079.468.468,0,0,0,.215-.075.128.128,0,0,1,.063-.019.113.113,0,0,1,.092.061.228.228,0,0,1,.042.132.332.332,0,0,1-.142.248,1.071,1.071,0,0,1-.718.252.753.753,0,0,1-.537-.189.65.65,0,0,1-.2-.5v-.965a.1.1,0,0,0-.011-.06.1.1,0,0,0-.059-.011h-.215c-.041,0-.067-.007-.077-.02a.16.16,0,0,1-.017-.093v-.092a.1.1,0,0,1,.048-.092l.956-.6a.182.182,0,0,1,.087-.019h.169a.082.082,0,0,1,.07.024.17.17,0,0,1,.018.095v.282a.116.116,0,0,0,.02.081.13.13,0,0,0,.085.019h.386a.128.128,0,0,1,.1.029.208.208,0,0,1,.023.12v.123a.24.24,0,0,1-.029.138.125.125,0,0,1-.107.039h-.377a.082.082,0,0,0-.1.1Z" transform="translate(-122.885 -68.71)" fill="#262626"/>
      <path id="Path_39" data-name="Path 39" d="M146.871,80.688a1.011,1.011,0,0,1,.5.116c.14.077.209.17.209.277a.229.229,0,0,1-.072.164.222.222,0,0,1-.162.073.147.147,0,0,1-.066-.013,1.428,1.428,0,0,1-.138-.09.36.36,0,0,0-.205-.067.226.226,0,0,0-.176.079.29.29,0,0,0-.07.2.239.239,0,0,0,.125.23.865.865,0,0,0,.19.037c.085.01.127.068.127.174a.272.272,0,0,1-.14.252.714.714,0,0,1-.232.059c-.065.01-.1.073-.1.19a.829.829,0,0,0,.132.428.875.875,0,0,0,.313.309.713.713,0,0,0,.806-.048.418.418,0,0,0,.173-.342.225.225,0,0,0-.079-.172.269.269,0,0,0-.188-.072.354.354,0,0,0-.3.213c-.036.061-.073.092-.113.092a.154.154,0,0,1-.129-.089.384.384,0,0,1-.055-.208.663.663,0,0,1,.18-.455,1.278,1.278,0,0,1,.523-.326,1.255,1.255,0,0,0,.338-.161.193.193,0,0,0,.073-.142.105.105,0,0,0-.029-.073.093.093,0,0,0-.069-.031.3.3,0,0,0-.075.023.094.094,0,0,1-.029,0,.084.084,0,0,1-.061-.026.087.087,0,0,1-.026-.064.232.232,0,0,1,.085-.169.557.557,0,0,1,.2-.117.761.761,0,0,1,.253-.044.7.7,0,0,1,.4.118.465.465,0,0,1,.154.179.507.507,0,0,1,.057.234.6.6,0,0,1-.121.351.935.935,0,0,1-.334.282c-.1.056-.152.1-.152.144s.035.065.1.107a.416.416,0,0,1,.149.16.441.441,0,0,1,.055.218.68.68,0,0,1-.15.4,1.408,1.408,0,0,1-.679.474,2.438,2.438,0,0,1-.851.14,2.273,2.273,0,0,1-1.067-.232,1.159,1.159,0,0,1-.495-.482.9.9,0,0,1-.115-.441.617.617,0,0,1,.165-.432.718.718,0,0,1,.206-.163c.052-.026.077-.052.077-.077a.12.12,0,0,0-.021-.054.778.778,0,0,1-.127-.371.6.6,0,0,1,.089-.306.789.789,0,0,1,.239-.254,1.2,1.2,0,0,1,.328-.15A1.256,1.256,0,0,1,146.871,80.688Z" transform="translate(-124.458 -68.52)" fill="#262626"/>
      <path id="Path_40" data-name="Path 40" d="M154.39,80.77a1.677,1.677,0,0,1,.516.077.6.6,0,0,0,.148.035.7.7,0,0,0,.176-.048.276.276,0,0,1,.09-.015.291.291,0,0,1,.223.138.771.771,0,0,1,.171.484.443.443,0,0,1-.091.29.294.294,0,0,1-.239.11.4.4,0,0,1-.238-.087,1.916,1.916,0,0,1-.173-.2.671.671,0,0,0-.528-.282.526.526,0,0,0-.431.2.829.829,0,0,0-.16.535,1.406,1.406,0,0,0,.255.849.744.744,0,0,0,.23.2.534.534,0,0,0,.265.077.238.238,0,0,0,.178-.073.253.253,0,0,0,.07-.184.16.16,0,0,0-.059-.142.1.1,0,0,0-.043-.02c-.013,0-.053,0-.12,0a.206.206,0,0,1-.149-.057.193.193,0,0,1-.06-.145q0-.174.23-.246a1.957,1.957,0,0,1,.583-.079,2.048,2.048,0,0,1,.593.073q.227.071.227.256a.184.184,0,0,1-.052.13.213.213,0,0,1-.136.066.177.177,0,0,0-.1.033.28.28,0,0,0-.045.107,1.089,1.089,0,0,1-.351.555,1.305,1.305,0,0,1-.433.238,1.67,1.67,0,0,1-.534.085,1.7,1.7,0,0,1-.839-.211,1.444,1.444,0,0,1-.6-.6,1.459,1.459,0,0,1-.171-.7,1.369,1.369,0,0,1,.2-.718,1.463,1.463,0,0,1,.608-.564A1.667,1.667,0,0,1,154.39,80.77Z" transform="translate(-126.883 -68.547)" fill="#262626"/>
      <path id="Path_41" data-name="Path 41" d="M158.826,82.033c.073,0,.119.011.134.031a.569.569,0,0,1,.043.2c.007.061.029.092.065.092s.055-.02.08-.061a.5.5,0,0,1,.436-.261.418.418,0,0,1,.311.123.462.462,0,0,1,.1.156.462.462,0,0,1-.008.384.5.5,0,0,1-.119.17.456.456,0,0,1-.328.128.379.379,0,0,1-.178-.038.885.885,0,0,1-.189-.152.124.124,0,0,0-.081-.043.075.075,0,0,0-.077.065,1.323,1.323,0,0,0-.018.277,2.61,2.61,0,0,0,.023.43.175.175,0,0,0,.041.087.32.32,0,0,0,.112.049q.188.056.188.2a.21.21,0,0,1-.061.15.3.3,0,0,1-.16.085,3.162,3.162,0,0,1-.589.041,1.85,1.85,0,0,1-.561-.065c-.114-.039-.171-.107-.171-.2a.24.24,0,0,1,.125-.194.306.306,0,0,0,.083-.072.2.2,0,0,0,.031-.089,4.759,4.759,0,0,0,.034-.7.313.313,0,0,0-.021-.134.149.149,0,0,0-.083-.066c-.1-.039-.148-.1-.148-.169a.208.208,0,0,1,.1-.172,1.245,1.245,0,0,1,.342-.142A2.014,2.014,0,0,1,158.826,82.033Z" transform="translate(-128.558 -68.969)" fill="#262626"/>
      <path id="Path_42" data-name="Path 42" d="M162.509,82.011a1.157,1.157,0,0,1,.67.2,1.056,1.056,0,0,1,.332.369,1.023,1.023,0,0,1,.13.5.944.944,0,0,1-.415.771,1.457,1.457,0,0,1-.908.3,1.149,1.149,0,0,1-.808-.284.929.929,0,0,1-.3-.718,1.01,1.01,0,0,1,.367-.806A1.379,1.379,0,0,1,162.509,82.011Zm-.167.483a.181.181,0,0,0-.147.068.277.277,0,0,0-.055.18,1.711,1.711,0,0,0,.047.341,2.553,2.553,0,0,0,.112.383.222.222,0,0,0,.21.171q.186,0,.186-.236a1.954,1.954,0,0,0-.047-.4,1.635,1.635,0,0,0-.114-.364A.221.221,0,0,0,162.342,82.494Z" transform="translate(-129.693 -68.962)" fill="#262626"/>
      <path id="Path_43" data-name="Path 43" d="M166.273,82.014a1.172,1.172,0,0,1,.656.186.52.52,0,0,1,.269.441.378.378,0,0,1-.125.294.4.4,0,0,1-.282.107.3.3,0,0,1-.261-.125,1,1,0,0,1-.08-.2.216.216,0,0,0-.215-.176.239.239,0,0,0-.193.1.389.389,0,0,0-.078.246.637.637,0,0,0,.18.445.48.48,0,0,0,.367.156.728.728,0,0,0,.176-.018,1,1,0,0,0,.186-.072.149.149,0,0,1,.065-.015.159.159,0,0,1,.125.067.237.237,0,0,1,.055.156.334.334,0,0,1-.077.2.721.721,0,0,1-.2.18,1.2,1.2,0,0,1-.641.167,1.111,1.111,0,0,1-.733-.25,1,1,0,0,1-.388-.808.982.982,0,0,1,.361-.78A1.238,1.238,0,0,1,166.273,82.014Z" transform="translate(-130.985 -68.963)" fill="#262626"/>
      <path id="Path_44" data-name="Path 44" d="M170.392,83.158h-.981c-.043,0-.065.019-.065.056a.338.338,0,0,0,.147.256.493.493,0,0,0,.316.12.755.755,0,0,0,.222-.039.721.721,0,0,0,.2-.1.22.22,0,0,1,.113-.05.14.14,0,0,1,.106.067.224.224,0,0,1,.053.138.381.381,0,0,1-.188.29,1.242,1.242,0,0,1-.766.248,1.089,1.089,0,0,1-.735-.254,1.05,1.05,0,0,1-.238-.3,1.061,1.061,0,0,1-.123-.5,1.014,1.014,0,0,1,.213-.63,1.115,1.115,0,0,1,.468-.361,1.173,1.173,0,0,1,.461-.09,1.033,1.033,0,0,1,.674.226.913.913,0,0,1,.226.267.7.7,0,0,1,.1.343.4.4,0,0,1-.056.222A.171.171,0,0,1,170.392,83.158Zm-.927-.391h.211c.089,0,.133-.041.133-.123a.261.261,0,0,0-.065-.184.218.218,0,0,0-.169-.071.215.215,0,0,0-.184.092.293.293,0,0,0-.063.173.107.107,0,0,0,.031.088A.168.168,0,0,0,169.466,82.768Z" transform="translate(-132.115 -68.963)" fill="#262626"/>
      <path id="Path_45" data-name="Path 45" d="M172.83,82.033c.073,0,.118.011.134.031a.568.568,0,0,1,.043.2c.007.061.029.092.065.092s.055-.02.079-.061a.5.5,0,0,1,.437-.261.418.418,0,0,1,.311.123.463.463,0,0,1,.1.156.462.462,0,0,1-.008.384.5.5,0,0,1-.119.17.456.456,0,0,1-.328.128.379.379,0,0,1-.178-.038.871.871,0,0,1-.189-.152.125.125,0,0,0-.081-.043.075.075,0,0,0-.077.065A1.319,1.319,0,0,0,173,83.1a2.607,2.607,0,0,0,.023.43.174.174,0,0,0,.041.087.32.32,0,0,0,.112.049q.188.056.188.2a.21.21,0,0,1-.061.15.3.3,0,0,1-.16.085,3.162,3.162,0,0,1-.589.041,1.851,1.851,0,0,1-.561-.065c-.115-.039-.171-.107-.171-.2a.239.239,0,0,1,.125-.194.306.306,0,0,0,.083-.072.2.2,0,0,0,.031-.089,4.756,4.756,0,0,0,.034-.7.313.313,0,0,0-.021-.134.152.152,0,0,0-.083-.066c-.1-.039-.148-.1-.148-.169a.208.208,0,0,1,.1-.172,1.244,1.244,0,0,1,.342-.142A2.013,2.013,0,0,1,172.83,82.033Z" transform="translate(-133.238 -68.969)" fill="#262626"/>
      <path id="Path_46" data-name="Path 46" d="M177.319,83.048l-.276.758a2.98,2.98,0,0,1-.206.461,1.323,1.323,0,0,1-.235.3.914.914,0,0,1-.653.259.749.749,0,0,1-.5-.163.4.4,0,0,1-.148-.319.379.379,0,0,1,.1-.271.336.336,0,0,1,.254-.109.314.314,0,0,1,.242.1.28.28,0,0,1,.058.082A1.255,1.255,0,0,1,176,84.3a.1.1,0,0,0,.1.092.132.132,0,0,0,.109-.057.219.219,0,0,0,.044-.14.92.92,0,0,0-.109-.328l-.5-1.071a.937.937,0,0,0-.119-.208.6.6,0,0,0-.175-.1.154.154,0,0,1-.072-.066.178.178,0,0,1-.031-.1q0-.186.369-.252a3.225,3.225,0,0,1,.562-.044,1.057,1.057,0,0,1,.348.046.216.216,0,0,1,.172.207.228.228,0,0,1-.049.123.221.221,0,0,0-.045.119.274.274,0,0,0,.021.1c.015.036.046.1.093.184s.1.146.14.146.088-.043.134-.128a.524.524,0,0,0,.069-.248.232.232,0,0,0-.052-.156.27.27,0,0,1-.079-.16c0-.071.047-.128.142-.17a.938.938,0,0,1,.38-.064q.442,0,.442.213a.172.172,0,0,1-.045.124.431.431,0,0,1-.164.089.323.323,0,0,0-.159.125A2.5,2.5,0,0,0,177.319,83.048Z" transform="translate(-134.386 -68.969)" fill="#262626"/>
    </g>
  </g>
</svg>
